<svg id="dadbb08c-6934-47c4-bbb6-b857eb3fc920" data-name="Layer 1" xmlns="http://www.w3.org/2000/svg" viewBox="0 0 719.99547 215.12457">
  <defs>
    <style>
      .\30 8002e67-963b-479d-be09-4f344ad409c2 {
        fill: #fff;
      }

      .\38 4f49f84-2614-4640-a3e3-1420ca7ded30 {
        fill: #c28e0e;
      }

      .\35 56d42b5-7873-439c-b56b-85ef1cfacb89 {
        fill: #aaa;
      }
    </style>
  </defs>
  <title>Purdue-Sig-White-Gold-rgb</title>
  <path class="08002e67-963b-479d-be09-4f344ad409c2" d="M43.50549,86.287H57.262c19.83579,0,30.20936,9.017,30.20936,25.70492,0,18.48786-9.91843,27.278-30.43393,27.278H43.50549ZM0,73.21286V83.1352H3.83259c11.49589,0,14.65293,4.73295,14.65293,17.1313v84.09131c0,12.40123-3.157,17.13418-14.65293,17.13418H0v9.91973c10.36862-.44629,20.51526-.44629,30.88387-.44629s20.74114,0,31.11237.44629V201.492H58.389c-11.72386,0-14.88351-4.50864-14.88351-17.13418V151.4442H61.99624c33.58836,0,49.82452-11.72282,49.82452-39.00365,0-27.05365-17.58279-39.22769-53.88429-39.22769Z" transform="translate(0 -73.21286)"/>
  <path class="08002e67-963b-479d-be09-4f344ad409c2" d="M144.00792,101.21257c7.93594,0,15.692-.181,23.44668-.36192v7.93829h-3.06512c-9.91869,0-11.72413,3.42731-11.72413,13.70661v48.8722c0,20.56383,6.31146,29.94564,25.60673,29.94564,18.94066,0,25.43178-9.38181,25.43178-29.58345V123.03869c0-10.64387-1.98118-14.24976-12.44171-14.24976H188.3767v-7.93829c7.75237.181,15.15143.36192,22.54135.36192,7.21418,0,14.42837-.181,21.46655-.36192v7.93829h-3.2513c-7.7508,0-9.91843,4.14381-9.91843,13.70661v48.1507c0,29.94538-12.26074,43.29006-42.74457,43.29006-28.67551,0-43.64309-13.88522-43.64309-40.76052V122.49555c0-9.3792-1.98668-13.70661-9.92236-13.70661h-2.88546v-7.93829C128.13238,101.03161,136.07067,101.21257,144.00792,101.21257Z" transform="translate(0 -73.21286)"/>
  <path class="08002e67-963b-479d-be09-4f344ad409c2" d="M277.29288,111.49449h11.54029c16.95556,0,24.53063,6.13311,24.53063,20.73983,0,14.06618-8.83866,19.47754-27.05391,19.47754h-9.017Zm-34.81254-10.64384v7.93829h2.88938c9.19693,0,11.89986,3.78427,11.89986,13.70661V189.7744c0,10.09571-2.52328,13.70661-11.89986,13.70661h-2.88938v7.93072c8.29813-.357,16.415-.357,24.70793-.357,8.29786,0,16.59573,0,24.89516.357V203.481H289.018c-9.20187,0-11.72517-3.6109-11.72517-13.70661v-28.505h10.09965c14.97021,0,18.39621,4.33026,22.54527,16.23146,1.98118,5.95685,3.06514,18.04421,9.01571,33.91087h29.76076V203.481h-1.80544c-9.19562,0-12.266-5.414-15.32613-17.85828-4.33629-17.31749-5.415-27.23722-19.30154-29.58084,12.98381-3.42731,20.19932-12.98511,20.19932-25.79161,0-20.92079-14.06881-29.39962-43.64731-29.39962Z" transform="translate(0 -73.21286)"/>
  <path class="08002e67-963b-479d-be09-4f344ad409c2" d="M389.8367,111.31091h12.61771c30.48382,0,44.91219,13.347,44.91219,43.28771,0,31.56487-14.07141,46.17161-43.999,46.17161H389.8367Zm-34.81359-10.46027v7.93829h2.88677c9.20058,0,11.89856,3.78427,11.89856,13.70661V189.7744c0,9.91451-2.698,13.70661-11.89856,13.70661h-2.88677v7.93072h52.84265c40.94409,0,60.96738-18.39623,60.96738-56.63475,0-36.60884-20.921-53.92633-63.84893-53.92633Z" transform="translate(0 -73.21286)"/>
  <path class="08002e67-963b-479d-be09-4f344ad409c2" d="M497.18982,101.21257c7.93594,0,15.69327-.181,23.44564-.36192v7.93829h-3.06538c-9.91448,0-11.72021,3.42731-11.72021,13.70661v48.8722c0,20.56383,6.30911,29.94564,25.613,29.94564,18.93178,0,25.42943-9.38181,25.42943-29.58345V123.03869c0-10.64387-1.989-14.24976-12.44432-14.24976h-2.89173v-7.93829c7.76232.181,15.15247.36192,22.55284.36192,7.21157,0,14.41818-.181,21.45637-.36192v7.93829H582.327c-7.76253,0-9.93018,4.14381-9.93018,13.70661v48.1507c0,29.94538-12.26074,43.29006-42.73934,43.29006-28.68308,0-43.647-13.88522-43.647-40.76052V122.49555c0-9.3792-1.98405-13.70661-9.91973-13.70661h-2.892v-7.93829C481.31324,101.03161,489.24892,101.21257,497.18982,101.21257Z" transform="translate(0 -73.21286)"/>
  <path class="08002e67-963b-479d-be09-4f344ad409c2" d="M684.03422,101.39379v28.85647h-9.19066v-2.88651c0-14.06879-3.9728-15.14751-18.40117-15.14751H630.299v37.33321h8.47622c13.70426,0,16.76442-.90533,16.76442-14.79055h8.29786v39.317h-8.1093c-.18856-13.523-3.42733-14.79029-16.59576-14.79029H630.299v41.12766h25.4292c16.948,0,19.83969-2.1676,20.01308-22.00471h9.02223v33.00319H594.76108V203.481h3.78923c9.55781,0,11.72021-3.7921,11.72021-13.70661V122.49555c0-9.92234-2.33579-13.70661-11.72021-13.70661h-3.06512v-7.39515Z" transform="translate(0 -73.21286)"/>
  <path class="84f49f84-2614-4640-a3e3-1420ca7ded30" d="M12.86134,251.39956c2.652,0,5.30142-.05353,7.83751-.1149v3.12126h-.70766c-3.23591,0-3.82763,1.17821-3.82763,4.59272v15.8489c0,5.656,1.8232,8.30544,7.36459,8.30544,5.35652,0,7.59674-2.70555,7.59674-8.42033v-15.734c0-3.24112-.76641-4.59272-3.76912-4.59272h-.70766v-3.12126c2.53608.06137,4.94864.1149,7.36355.1149,2.4734,0,4.82982-.05353,7.18859-.1149v3.12126h-.881c-2.12428,0-2.9531,1.47146-2.9531,4.59272v15.19843c0,9.65991-4.05976,14.02545-14.42837,14.02545-9.72336,0-14.49443-4.18719-14.49443-12.54381V258.99865c0-3.06251-.52929-4.59272-2.88546-4.59272h-.705v-3.12126C7.557,251.346,10.27043,251.39956,12.86134,251.39956Z" transform="translate(0 -73.21286)"/>
  <path class="84f49f84-2614-4640-a3e3-1420ca7ded30" d="M96.98947,251.28467l13.84318,29.57066-.17731-21.85668c0-3.24112-.70374-4.59272-3.76886-4.59272h-.705v-3.12126c2.53216.06137,5.00321.1149,7.54059.1149,2.59065,0,5.12673-.05353,7.71633-.1149v3.12126h-.705c-3.009,0-3.77017,1.3516-3.77017,4.59272V287.394H106.94628L93.09945,257.94291l.11987,21.68091c0,3.23853.70895,4.64627,3.77015,4.64627h.709V287.394c-2.53608-.1149-5.06823-.1149-7.6017-.1149-2.53216,0-5.06693,0-7.65523.1149v-3.12387h.705c3.004,0,3.82631-1.40774,3.82631-4.64627V258.99865c0-3.24112-.82228-4.59272-3.82631-4.59272h-.705v-3.12126Z" transform="translate(0 -73.21286)"/>
  <path class="84f49f84-2614-4640-a3e3-1420ca7ded30" d="M171.8063,251.39956c2.76691,0,5.59989-.05353,8.42556-.1149v3.12126h-.76511c-3.00532,0-3.77015,1.3516-3.77015,4.59272v20.62517c0,3.23853.76483,4.64627,3.77015,4.64627h.76511V287.394c-2.82567-.1149-5.65864-.1149-8.42556-.1149-2.82541,0-5.65473,0-8.48274.1149v-3.12387h.705c3.009,0,3.77017-1.40774,3.77017-4.64627V258.99865c0-3.24112-.76117-4.59272-3.77017-4.59272h-.705v-3.12126C166.15157,251.346,168.9809,251.39956,171.8063,251.39956Z" transform="translate(0 -73.21286)"/>
  <path class="84f49f84-2614-4640-a3e3-1420ca7ded30" d="M227.30227,251.39956c2.53242,0,5.48029-.05353,8.72141-.1149v3.12126c-3.004.12247-4.24723.29583-4.24723,1.94331a5.12594,5.12594,0,0,0,.35329,1.59366l7.9537,23.02992,7.603-22.91242a5.41165,5.41165,0,0,0,.2371-1.53517c0-1.53256-1.35787-2.11932-4.24594-2.11932v-3.12126c2.82828.06137,5.42285.1149,7.89651.1149,2.41987,0,4.71258-.05353,6.83163-.1149v3.12126c-2.11905.4131-3.00271,1.53021-3.77043,3.76651L244.02961,287.988h-8.535L224.533,258.41215c-.93849-2.59326-1.76731-3.82761-3.77017-4.00623v-3.12126C222.59,251.346,224.77011,251.39956,227.30227,251.39956Z" transform="translate(0 -73.21286)"/>
  <path class="84f49f84-2614-4640-a3e3-1420ca7ded30" d="M328.2178,251.39956v9.96308h-3.35837v-1.59628c0-3.41712-1.94305-4.12086-6.30259-4.12086h-7.24474v11.24833h2.06056c3.89,0,4.88962-.70633,4.95229-4.71255h3.17976v13.07938H318.325c-.17731-3.88637-1.06227-4.59533-4.71258-4.59533h-2.30028V283.153h6.59975c5.89053,0,7.186-.76484,7.29957-7.06612H328.515V287.394H298.94039v-3.12387h.709c3.18132,0,3.77043-1.53021,3.77043-4.64627V258.99865c0-3.24112-.76511-4.59272-3.77043-4.59272h-.709v-3.00637Z" transform="translate(0 -73.21286)"/>
  <path class="84f49f84-2614-4640-a3e3-1420ca7ded30" d="M383.49207,255.6455h3.004c4.94709,0,7.181,1.64458,7.181,6.12267,0,4.30182-2.35616,5.83464-7.48184,5.83464h-2.7032Zm-12.378-4.36084v3.12126h.709c2.99879,0,3.7639,1.3516,3.7639,4.59272v20.62517c0,3.23853-.76511,4.64627-3.7639,4.64627h-.709V287.394c2.83063-.1149,5.66126-.1149,8.48144-.1149,2.77449,0,5.60511,0,8.43574.1149v-3.12387h-.77007c-3.004,0-3.76912-1.40774-3.76912-4.64627v-8.19339h2.82567c3.23329,0,5.06432.94084,5.88556,3.30222,1.12207,3.12126,1.30564,7.65549,3.47823,12.66131h10.84282v-3.12387h-.2956a4.58684,4.58684,0,0,1-3.77434-1.53021c-1.05574-1.23174-1.46885-3.88639-2.41228-7.54059-.99962-3.70776-1.82583-5.41632-5.18681-5.89053,4.12086-.99725,6.37-3.88637,6.37-8.29815,0-7.135-4.84-9.726-15.14725-9.726Z" transform="translate(0 -73.21286)"/>
  <path class="84f49f84-2614-4640-a3e3-1420ca7ded30" d="M473.974,262.069h-4.53919a7.50117,7.50117,0,0,0,.06633-1.18578c0-4.47286-2.23891-6.47728-7.12488-6.47728-4.24829,0-6.89535,2.17781-6.89535,5.299,0,2.5374,1.4127,3.95011,4.534,5.192l7.47688,3.00141c5.12571,2.06317,7.66045,5.17686,7.66045,9.54238,0,6.8293-5.12046,10.78174-14.66286,10.78174a58.69256,58.69256,0,0,1-12.96971-1.53752V276.49475H451.829c0,.30106-.06113.59433-.06113.82882,0,4.65147,2.8254,7.01285,8.30831,7.01285,4.42168,0,6.8238-1.94828,6.8238-5.48293,0-2.5371-1.22913-3.82759-4.12086-5.06429l-6.88516-2.95049c-5.7174-2.476-8.54776-5.12046-8.54776-9.8281,0-6.48222,5.06432-10.55712,14.32627-10.55712a53.13088,53.13088,0,0,1,12.30148,1.655Z" transform="translate(0 -73.21286)"/>
  <path class="84f49f84-2614-4640-a3e3-1420ca7ded30" d="M526.17425,251.39956c2.76926,0,5.59467-.05353,8.4253-.1149v3.12126h-.76511c-3.009,0-3.77406,1.3516-3.77406,4.59272v20.62517c0,3.23853.76511,4.64627,3.77406,4.64627h.76511V287.394c-2.83063-.1149-5.656-.1149-8.4253-.1149-2.82567,0-5.65107,0-8.48666.1149v-3.12387h.71392c2.99879,0,3.76886-1.40774,3.76886-4.64627V258.99865c0-3.24112-.77007-4.59272-3.76886-4.59272h-.71392v-3.12126C520.52317,251.346,523.34858,251.39956,526.17425,251.39956Z" transform="translate(0 -73.21286)"/>
  <path class="84f49f84-2614-4640-a3e3-1420ca7ded30" d="M587.15155,251.39956h9.95551c1.22913,0,5.00321-.1149,11.3071-.1149v10.89661h-3.89133v-.94609c0-4.65145-1.29546-5.58968-5.65107-5.58968h-2.59587v23.97832c0,3.23853.76484,4.64627,3.77408,4.64627h1.23931V287.394c-3.004-.1149-6.01326-.1149-8.96113-.1149-2.99879,0-6.00281,0-9.01179.1149v-3.12387h1.23931c3.009,0,3.7639-1.40774,3.7639-4.64627V255.6455h-3.17741c-3.94747,0-5.29907,1.05809-5.29907,5.00817a13.83157,13.83157,0,0,0,.0611,1.5276h-3.713V251.28467C582.31416,251.28467,585.97334,251.39956,587.15155,251.39956Z" transform="translate(0 -73.21286)"/>
  <path class="84f49f84-2614-4640-a3e3-1420ca7ded30" d="M655.89663,251.39956c2.53477,0,5.18679-.05353,7.8388-.1149v3.12126h-.30082c-1.87673,0-2.70816.53061-2.70816,1.70621a5.14058,5.14058,0,0,0,.709,2.12167l4.59507,9.31285,4.59037-9.01725a5.47673,5.47673,0,0,0,.65282-2.2363c0-1.35656-.88757-1.88717-2.88677-1.88717v-3.12126c2.53477.06137,4.95229.1149,7.3594.1149,2.36657,0,4.71777-.05353,7.01779-.1149v3.12126h-.23945c-1.88717,0-3.004,1.3516-4.58515,3.9399L669.152,272.72328v7.31106c0,3.11865.59145,4.23576,4.00858,4.23576h.82125V287.394c-2.76952-.1149-5.59493-.1149-8.48666-.1149-2.82567,0-5.70721,0-8.59372.1149v-3.12387h.82621c3.35576,0,3.99839-1.11711,3.99839-4.23576V272.611l-8.24172-14.31611c-1.40774-2.4175-2.59613-3.76649-5.00347-3.889v-3.12126C650.8882,251.346,653.36683,251.39956,655.89663,251.39956Z" transform="translate(0 -73.21286)"/>
  <rect class="84f49f84-2614-4640-a3e3-1420ca7ded30" x="0.89619" y="152.99699" width="684.05093" height="6.49243"/>
  <path class="556d42b5-7873-439c-b56b-85ef1cfacb89" d="M717.47845,285.80762a8.61246,8.61246,0,1,1,2.517-6.1023A8.28747,8.28747,0,0,1,717.47845,285.80762Zm-11.31468-11.32486a7.13945,7.13945,0,0,0-2.15483,5.23274,7.23761,7.23761,0,0,0,2.142,5.27113,7.37608,7.37608,0,0,0,10.47071,0,7.47759,7.47759,0,0,0,0-10.50387,7.36072,7.36072,0,0,0-10.45792,0Zm5.05939.47943a7.24625,7.24625,0,0,1,2.57548.33921,2.341,2.341,0,0,1,1.46388,2.39193,2.06138,2.06138,0,0,1-.92074,1.86419,3.55747,3.55747,0,0,1-1.36413.45906,2.27586,2.27586,0,0,1,1.61928.92309,2.59221,2.59221,0,0,1,.51491,1.461v.69121c0,.21674.00783.45123.023.70113a1.54517,1.54517,0,0,0,.0817.49223l.05849.11722h-1.55789c-.00783-.03053-.01541-.06369-.023-.09424a.85906.85906,0,0,1-.023-.10445l-.03577-.30343V283.153a2.30888,2.30888,0,0,0-.88989-2.15979,4.02,4.02,0,0,0-1.8514-.30343h-1.31063v3.7127H707.9183v-9.44028Zm1.79523,1.4866a4.37263,4.37263,0,0,0-2.01457-.34913h-1.42031v3.41947h1.502a4.51753,4.51753,0,0,0,1.58609-.21151,1.69819,1.69819,0,0,0,.34678-2.85883Z" transform="translate(0 -73.21286)"/>
</svg>
